<?xml version="1.0" encoding="utf-8"?><svg xml:space="preserve" viewBox="0 0 100 100" y="0" x="0" xmlns="http://www.w3.org/2000/svg" id="圖層_1" version="1.1" width="200px" height="200px" xmlns:xlink="http://www.w3.org/1999/xlink" style="width:100%;height:100%;background-size:initial;background-repeat-y:initial;background-repeat-x:initial;background-position-y:initial;background-position-x:initial;background-origin:initial;background-image:initial;background-color:rgb(255, 255, 255);background-clip:initial;background-attachment:initial;animation-play-state:paused" ><g class="ldl-scale" style="transform-origin:50% 50%;transform:rotate(0deg) scale(0.8, 0.8);animation-play-state:paused" ><circle stroke-width="5" stroke="#333" fill="#77a4bd" r="40" cy="48" cx="50" style="stroke:rgb(51, 51, 51);fill:rgb(119, 164, 189);animation-play-state:paused" ></circle>
<path stroke="#fff" fill="#f8eaec" d="M11.7 59.6h0l.1.2h0l-.1-.2z" style="stroke:rgb(255, 255, 255);fill:rgb(248, 234, 236);animation-play-state:paused" ></path>
<path fill="#f5e6c8" d="M60.8 56.9z" style="fill:rgb(245, 230, 200);animation-play-state:paused" ></path>
<path fill="none" d="M54.7 17.6c0-.1.1-.2.2-.3-.2 0-.3.1-.5.1.1 0 .2.1.3.2z" style="animation-play-state:paused" ></path>
<path fill="none" d="M52 15.7s.1 0 0 0c.1 0 0 0 0 0z" style="animation-play-state:paused" ></path>
<path fill="none" d="M51.9 18.1s0-.1 0 0c0-.1 0 0 0 0z" style="animation-play-state:paused" ></path>
<path fill="none" d="M53 16.5c.2 0 .4 0 .6.1l-.1-.3c.2-.1.5-.1.7.1-.2-.2-.4-.3-.7-.3.1-.2.2-.3.4-.3v-.2c-.1 0-.2-.1-.2-.1l.1.1c-.4.2-.7.5-1 .4.1.1.2.1.3.2l-.1.3z" style="animation-play-state:paused" ></path>
<path fill="none" d="M26.4 21.7l.1-.1-.5.1.2-.4-.2.2.3-.3c-.2.2-.5.2-.6 0 .4-.2.7-.5.9-.8l-.4-.1c.6-1 1.6-1.6 2.7-1.7v.2l.5-.1c.1 0 .9-.3 1.2-.4-.2-.1-.5-.1-.7 0l.1-.3c-.4-.8.3-1.3 1.6-.9l-.4.2.3.2c1.5-1.5 2.7-2.3 5-1.8.1.2.1.3-.2.4.2-.1.3-.1.5.1l-.2.1C38 18 39.1 18 41.4 18v.2c.3 0 .5-.1.6-.3.2.1.3.3.2.6l.7-.3-.3.4c.3 0 .5 0 .7-.2 1 .1 1.7.4 2.3 1.1l-.6.2c.6.2 1.2.2 1.7.1-.3-.1-.6-.2-.9-.4 0-.4-.2-.5-.7-.4l-.1-.5c.6 0 1.1-.1 1.6-.1-.5-.2-1.1-.3-1.6-.3v-.2l.8-.1c-.3 0-.6-.1-.8-.2.1-.2.3-.3.4-.4-.5.3-1 .5-1.7.6.1-.3 0-.5-.3-.6.9-.1 1.4-.5 1.4-1.1.8-.1 1.5.2 2 .7h-.1c.1 0 .3.1.4.2l-.3.2c.4-.3.8-.2.9.2.5-.4.7-.3.6.5.3-.2.4-.4.2-.7.6-.1.8.2.8.8-.1.6.2.9 1 1 0 .3-.2.4-.6.3l.2.2c-.2.3-.4.5-.7.6.6.1 1.2.1 1.9.2.4-.5.7-.5.8.3 0-.4.2-.6.5-.4 0-.1-.1-.3-.2-.4-.3 0-.6-.1-.9-.3.2-.1.4-.2.5-.4-.1 0-.1 0-.2-.1-.2-.3-.5-.5-.8-.6v-.2l.6.1-.4-.5c.3-.3.6-.3.9-.2-.1-.4.1-.7.4-.7-.1-.1-.2-.2-.4-.3-.1 0-.2-.1-.3-.1-.1 0-.2 0-.3-.1l.1-.3H51l.1-.4h.2c.2-.2.4-.2.7-.1-.3-.2-.2-.4.2-.6h-.1c.5-.1 1 .1 1.4.5l-.1-.1c.3.2.6.1.8-.1-.5.1-1 0-1.4-.3-.1 0-.2-.1-.2-.2.3-.3.7-.4 1-.2v-.2c.5-.2 1-.2 1.4-.2l.2-.2-.3-.1c.3-.3.6-.4 1-.3l-.1-.2h.7c-.3-.1-.5-.2-.7-.4l.3-.1-.2-.1c.5-.4 1.2-.4 1.8-.2l-.3.3c.3-.1.3-.1.7-.1l-.2-.1c.3 0 .6.1.8.2-.2-.1-.3-.3-.4-.4.9-.2 1.4 0 1.5.5.8-.6 1.8-.4 3 .7v.1c.4.2 1 .4 1.6.4.2.1.6.3.9.3l-.1.2c.7-.1.9.1.6.4.4 0 .8.1 1.1.3h-.5c.6.1 1.3.3 1.9.5v.2c-.3-.1-.7-.1-1-.2.4.1.7.2.9.5.2-.1.3-.2.5-.3.9.5 1 1.1.5 1.7 1 .7 1.1 1.3.5 2 .7 1.3 1.6 2.4 2.8 3.3-3 .1-5.9-1.6-8-3.7.3-.4.2-.7-.4-.9-.2.8-.7.7-1.4-.2.3-.1.6-.1.9-.1-2.5-.6-4.9-2.3-7.7-2.1.1.1.1.2-.2.4.1.2 0 .3-.2.3.2 0 .4.1.5.2-.1.1-.2.1-.2.2.1 0 .2 0 .3.1.5-.1 1.1 0 1.4.3-.3 0-.6 0-.9.1-.1 0-.2-.1-.3-.2.1.1.1.3.1.5.3 0 .5-.2.7-.4.6.1 4.2 1.4 4.4 1.5l-.4.3c2.3-.4 3.3.2 3.2 1.8-.6-.7-1.3-.8-2-.5 1 .4 1.9 1.1 2.6 2-.6-.1-1.3-.2-1.9-.4.6.3 1.2.6 1.7 1-1 0-2-.2-3-.6v-.2c-.5-.2-1-.3-1.5-.5l.1.2c-.5.2-1 .2-1.5 0l.1-.5c.5 0 1-.1 1.5-.2-.3-.3-.4-.7-.1-1.1-.5-.5-1.2-.8-1.9-.8l.1-.2c-.4-.2-.7-.4-1.1-.5-.1.2-.3.4-.5.6.1.2.1.4-.1.6.8.7.4 1.1-1.1 1 0 .3-.1.5-.2.7v.1c.6-.1 1.3.2 1.6.7.2-.1.3-.1.4 0h.3c-.2.3-.5.5-.8.3-.2 0-.4-.2-.6-.4-.2.3-.5.5-.9.7-.1-.4-.4-.5-.8-.3.3-.2.4-.5.4-.8-.3.4-.7.6-1.2.8-.6.7-1.7 1.9-1.7 3.1 1.8 1.5 4 1.9 6.8 2.5.2 1.3.8 2.2 2.1 2.8 1-.5.8-1.4-.6-2.6 1.7-1 1.5-2.1-.2-2.9.6-1-.1-1.1-.7-2.3 2.3-.5 4.5.6 5.9 2.2.5-.4.7-.9.5-1.6 1.4.8 6.4 3.4 7.6 4.7-.2.2-.3.4-.5.6.1.4.1.8.1 1.2l.2-.3.4.1v.3l.6.1.1-.2c.6-.1.8.1.8.7l.3-.2c.3.5.7 1 1 1.5-.6.4-.8-.4-1.1-.7 0 .4-.1.7-.5.8l.1-.4c-1.3 0-2.6.9-2.2-.3-.8-.3-1-.9-.6-1.9-1.8 1.4-3.4.6-4.9 4.1.7-1.4 1.8-2.2 3.4-2.1.2.6.4 1.1.7 1.5 0-.1 0-.1.1-.2.4.4.8.5 1.3.3.2-.1.4-.3.6-.6.1.4.4.7.8.8-.5 1.7-1.5 2.5-2.8 2.4-.6-1 .1-.7.5-1.5-.5.1-1.1.2-1.6.4l.2.2c-1.6.7-1.8 1.8-1.1 2.7l-.2-.3c.2.1.3.2.3.4-.8.2-1.6.5-2.3.9.4-.2.8-.3 1.2-.1-.4.2-.9.4-1.3.4v-.1l-.2.1h.2c.1.5 0 .9-.3 1.3-.1-.2-.3-.4-.6-.4.6.6.6 1.2.2 2h-.1l.1-.6c-.4-.2-.7-.5-.7-1-.1.3 0 .6.2.9l-.5-.1c.5.3.8.7 1 1.1-.1 2-1.8 2-2.3 3.6-.8 2.5 0 4.6.6 7.1-.7.7-3.4-4-3.6-4.2-1.7 1.2-1-1.1-4.5.1 0 .3.1.6.4.8-3.8-1.2-6.6.6-7 4.5-.7 7.4 4.5 4.7 8.5 3 2.3-1.8 5.9-.3 7.8.8.3-.1.6-.1.8-.1.2-.3.7-.3 1.3 0 .6-.1 1.5-.1 2.1.1v.3c.9 0 1 .2.6.7-.6-.2-1.3.1-1.7 0-.3.1-.5.4-.5.8-.4-.6-.7-.5-1.8-.4-.5.3-.8.2-.8-.3.6.2 1.3.1 1.7-.2-.3-.1-.4-.3-.4-.5-.6.1-1.1.2-1.7.3l-1.2.2.5-.6c-1.3-1.1-2.8-1.6-4.6-1.5l.3-.2c-.2.1-.9.4-1.5.6-.1.4-.3.7-.4 1.1.4.3.4.7-.1 1.3-.1-.2-.2-.3-.4-.2v.1h.2c.1.9-.2 1.7-.7 2.3l.3.2.1-.1c.1.1.2.1.4.1.7-1 4.3.2 4.6.4-1.2 1.6.1 4.5 1.1 5.4.2.1.4.1.5-.1.6-.1 1.7-.4 2.5-.7v.1c.7.1 1.4.3 2.1.6.2-.4.6-.7 1-.8.6-.5 1-1.1 1.2-1.8 1.9-.1 2.3-2.3 2.5-.5l-1.1.1c-.4-.4.2 1.8.4 2.1.1-.9.4-1.6 1.2-2.3-.2-.3-.2-.5.1-.7l.4.6c.6-.2 1.1.1 1.3.7.8-.1 2.7-.4 3.2-.6.6-.2 1.3-.3 2-.4l-.7.4c.8.3 1.3.6 1.7 1.3 3-5.4 4.6-11.5 4.6-18.1 0-20.7-16.8-37.5-37.5-37.5-11.2 0-21.2 4.9-28.1 12.7 1.7-.2 3.4-.7 4.9-1.5h-.4z" style="animation-play-state:paused" ></path>
<path fill="none" d="M55.9 15.7h-.5c.1 0 .2.1.2.1.2-.1.3-.1.3-.1z" style="animation-play-state:paused" ></path>
<path fill="none" d="M66.4 78l-.4.4-.5-.4c.2-.3.2-.7 0-1 .4-1 1-1.6 1.9-2.3l-.1-.3.3-.1c-.2-.4 1.2-1.8 1.3-2l-.3-.2c.5-1-.5-2.9-1-3.5l.2-.3c-1.3-.5-2.2-.4-1.6.8-.2.2-.5.3-.8.4l-.2-.5c-.6 0-.6-.4-1.7-.3v.2c-.7-.3-1.2-.8-1.7-1.3 0-.2-.1-.4-.3-.4.1.2.1.4-.1.5-.5-.2-.8-.5-.6-1.1l-.3-.1.2-.2c-.6-.5-1.2-1.1-1.9-1.6l.1-.1.2.1.1-.1c-.1-.2-.2-.4-.5-.4-5 .1-13.1-2.4-16.4-6.6l.3-.1c-.4-2-1.4-3.8-3.1-5l.2-.6c-2.2-1-1.7-4.2-3.7-5.2.3 1 .6 2.1.8 3.1-1.1-1.9 2.6 4.9 2.1 5.3-.9-.1-1.5-.7-1.8-1.9.3-.8 0-1.5-.8-1.9l-.1.1c-.4-.3-.7-.7-1-1.1.7-1.4-.5-3.6-1.5-5.7-2.3-5-1.7-6.5.2-12.4.6.2.8.6.7 1.2 1-1.1.3-1.8-.4-2.3.2.3.3.7.3 1.2-.5.1-1-.2-1.1-.7-.3-.2-1.1-1-.6-1.4.2.1.4.1.6.2-.3-.4-.3-.8.3-1.3l-.4-.4c.3-.4.4-.8 0-1.2 2.3-2.5-2.4-4-2.5-5.8-.9.4-1.2.4-2.5.5.9-.1 1.4-.5 1.8-1.1-2.7.9-5.2 2.4-8.2 2.1-5.8 6.6-9.4 15.3-9.4 24.8 0 20.7 16.8 37.5 37.5 37.5 5.7 0 11-1.3 15.9-3.5-.2-.2-.5-.4-.7-.6 0-1.1.6-2.5 1.2-3.4z" style="animation-play-state:paused" ></path>
<path fill="none" d="M47 20.3l.3-.1c-.1 0-.3-.1-.5-.1l.2.2z" style="animation-play-state:paused" ></path>
<path fill="none" d="M53 19.2l.6.1.1.6.4-.5c.4.5.5.6.9 1.2.3-.4.4-.8.4-1.2-.4-.1-.9-.4-1.5-.8l.3-.3c-.8.1-.8-.2 0-1H54c-.3 0-.6 0-.8-.1l-.7.7h-.1s-.1 0-.1.1c1 .3 1.3.7.7 1.2z" style="animation-play-state:paused" ></path>
<path fill="none" d="M52.4 15.7h-.3c.1 0 .2 0 .2.1v.1h-.1c.1 0 .2.1.3.1 0-.1-.1-.1-.1-.3z" style="animation-play-state:paused" ></path>
<path fill="#f5e6c8" d="M82.9 66.1c-.4-.6-1-1-1.7-1.3l.7-.4c-.7.1-1.3.3-2 .4-.5.1-2.4.5-3.2.6-.2-.6-.6-.8-1.3-.7l-.4-.6c-.3.2-.4.4-.1.7-.8.7-1 1.4-1.2 2.3-.2-.3-.8-2.5-.4-2.1l.5-.2c-.2-1.8-.5.4-2.5.5-.2.7-.6 1.3-1.2 1.8-.4.2-.8.5-1 .8-.7-.3-1.3-.5-2.1-.6v-.1c-.7.3-1.9.6-2.5.7-.1.1-.3.2-.5.1-1.1-.9-2.3-3.8-1.1-5.4-.3-.2-3.9-1.4-4.6-.4-.1 0-.3-.1-.4-.1l.1.1-.3-.2c.5-.6.7-1.4.7-2.3h-.2v-.1c.2-.1.3 0 .4.2.5-.6.6-1 .1-1.3.1-.4.3-.7.4-1.1.7-.2 1.3-.5 1.5-.6l-.3.2c1.8-.1 3.3.4 4.6 1.5l-.5.6 1.2-.2c.6-.1 1.1-.2 1.7-.3 0 .2.2.4.4.5-.5.3-1.1.4-1.7.2 0 .5.3.6.8.3 1.1-.1 1.4-.2 1.8.4 0-.4.2-.7.5-.8.4.1 1-.2 1.7 0 .5-.5.3-.7-.6-.7v-.3c-.6-.2-1.5-.2-2.1-.1-.6-.3-1-.3-1.3 0-.2 0-.5 0-.8.1-1.9-1.1-5.5-2.6-7.8-.8-4 1.6-9.2 4.4-8.5-3 .4-3.9 3.2-5.7 7-4.5-.3-.2-.4-.4-.4-.8 3.5-1.2 2.8 1.1 4.5-.1.1.2 2.9 4.9 3.6 4.2-.6-2.4-1.3-4.6-.6-7.1.5-1.6 2.3-1.6 2.3-3.6-.2-.4-.5-.8-1-1.1l.5.1c-.3-.3-.3-.6-.2-.9 0 .5.2.8.7 1l-.1.6h.1c.5-.7.5-1.4-.2-2 .3 0 .5.2.6.4.3-.4.4-.8.3-1.3h-.2l.1-.3v.1c.5-.1.9-.2 1.3-.4-.4-.1-.8-.1-1.2.1.7-.4 1.5-.7 2.3-.9 0-.2-.1-.3-.3-.4l.2.3c-.8-.9-.6-2 1.1-2.7l.2-.1c.5-.2 1-.3 1.6-.4-.4.8-1.1.5-.5 1.5 1.4.1 2.3-.7 2.8-2.4-.4-.1-.7-.3-.8-.8-.2.3-.4.5-.6.6-.5.2-1 .1-1.3-.3 0 .1 0 .1-.1.2-.3-.3-.5-.8-.7-1.5-1.5-.2-2.7.7-3.4 2.1 1.5-3.5 3.1-2.7 4.9-4.1-.4 1-.2 1.6.6 1.9-.4 1.2.8.2 2.2.3l-.1.4c.4-.1.5-.4.5-.8.3.3.5 1.1 1.1.7-.3-.5-.7-1-1-1.5l-.2.1c0-.5-.3-.8-.8-.7l-.1.2-.6-.1v-.3l-.4-.1-.2.3c0-.4-.1-.8-.1-1.2.2-.2.3-.4.5-.6-1.3-1.3-6.2-3.9-7.6-4.7.2.7.1 1.2-.5 1.6-1.5-1.5-3.6-2.7-5.9-2.2.6 1.3 1.3 1.3.7 2.3 1.7.9 1.9 1.9.2 2.9 1.4 1.2 1.7 2 .6 2.6-1.2-.6-1.9-1.5-2.1-2.8-2.8-.6-5-.9-6.8-2.5-.1-1.2 1-2.4 1.7-3.1.5-.1.9-.4 1.2-.8 0 .3-.1.6-.4.8.4-.2.7-.1.8.3.3-.2.6-.4.9-.7.2.2.4.3.6.4.3.2.7 0 .8-.3h-.3c-.1-.1-.3-.1-.4 0-.3-.5-1-.8-1.6-.7v-.1c.1-.2.2-.4.2-.7 1.6.1 1.9-.3 1.1-1 .2-.3.2-.5.1-.6.2-.1.4-.3.5-.6.4.1.7.3 1.1.5l-.1.2c.7 0 1.4.3 1.9.8-.2.4-.2.8.1 1.1-.5.1-1 .2-1.5.2l-.1.5c.5.2 1 .2 1.5 0l-.1-.2c.5.2 1 .3 1.5.5v.2c.9.4 1.9.6 3 .6-.5-.4-1.1-.7-1.7-1 .6.2 1.2.3 1.9.4-.6-.9-1.6-1.6-2.6-2 .7-.3 1.3-.2 2 .5.1-1.7-.9-2.3-3.2-1.8l.4-.3c-.2-.1-3.7-1.4-4.4-1.5-.1.3-.3.4-.7.4 0-.2-.1-.4-.1-.5.1.1.2.1.3.2.3-.1.6-.1.9-.1-.4-.4-.9-.5-1.4-.3-.1-.1-.2-.1-.3-.1.1-.1.2-.1.2-.2-.1-.1-.3-.1-.5-.2.2-.1.3-.2.2-.3.3-.2.4-.3.2-.4 2.8-.1 5.2 1.5 7.7 2.1-.3-.1-.6 0-.9.1.7 1 1.2 1 1.4.2.6.3.8.6.4.9 2.1 2.1 5 3.8 8 3.7-1.1-.9-2.1-2-2.8-3.3.7-.7.5-1.3-.5-2 .6-.6.4-1.1-.5-1.7-.2.1-.4.2-.5.3-.2-.3-.5-.5-.9-.5.3.1.7.1 1 .2v-.2c-.6-.2-1.3-.4-1.9-.5h.5c-.3-.2-.7-.3-1.1-.3.3-.3 0-.5-.6-.4l.1-.2c-.3 0-.7-.1-.9-.3-.5-.1-1.1-.2-1.6-.4v-.1c-1.2-1.1-2.2-1.3-3-.7-.1-.6-.6-.7-1.5-.5.1.2.3.3.4.4-.3-.1-.5-.2-.8-.2l.2.1c-.4.1-.4.1-.7.1l.3-.3c-.6-.2-1.3-.2-1.8.2l.2.1-.3.1c.2.2.4.4.7.4h.4-1.1l.1.2c-.4-.1-.7 0-1 .3l.3.1c-.1.2-.1.3-.2.3-.5 0-1 .1-1.4.2v.2c-.4-.2-.7-.1-1 .2 0 .1.1.2.2.2.4.3.9.4 1.4.3-.2.2-.4.3-.8.1l.1.1c-.4-.4-.8-.6-1.4-.5l.1.1c-.4.2-.5.4-.2.6-.2-.1-.5 0-.7.1h-.2l-.1.5h.4l-.1.3c.1 0 .2.1.3.1.1.1.2.1.3.1.1.1.2.2.4.3-.3.1-.4.3-.4.7-.4-.1-.7 0-.9.2l.2.3-.6-.1v.2c.3.1.6.4.8.6.1 0 .1 0 .2.1-.1.2-.3.3-.5.4.3.2.6.3.9.3.1.2.1.3.2.4-.3-.1-.5 0-.5.4-.2-.8-.5-.8-.8-.3-.6 0-1.2-.1-1.9-.2.3-.1.5-.3.7-.6l-.2-.2c.4.1.6.1.6-.3-.8-.1-1.1-.4-1-1 .1-.6-.2-.9-.8-.8.1.3 0 .6-.2.7 0-.7-.2-.9-.6-.5-.2-.4-.5-.4-.9-.2l.3-.2c-.1-.1-.3-.1-.4-.2h.1c-.5-.5-1.2-.8-2-.7 0 .6-.5 1-1.4 1.1.3.1.4.3.3.6.6-.1 1.1-.3 1.7-.6-.1.1-.3.2-.4.4.2.2.5.3.8.2l-.8.1v.2c.6 0 1.1.1 1.6.3-.6 0-1.1 0-1.6.1l.1.5c.5-.1.8.1.7.4.3.2.6.3.9.4-.6.1-1.2.1-1.7-.1l.6-.2c-.5-.7-1.3-1.1-2.3-1.1-.2.2-.4.2-.7.2l.3-.4-.7.3c.1-.3.1-.5-.2-.6-.2.2-.4.3-.6.3v-.2c-2.3 0-3.4 0-4.8-1.6l.2-.1c-.1-.2-.3-.2-.5-.1.2-.1.3-.3.2-.4-2.4-.5-3.5.3-5 1.8l-.3-.2.4-.2c-1.3-.4-2 .2-1.6.9l-.1.2c.2-.1.5-.1.7 0-.3.2-1.1.4-1.2.4l-.5.1v-.2c-1.2.1-2.1.7-2.7 1.7l.4.1c-.2.3-.5.6-.9.8.2.2.4.1.6 0l-.1.5.3-.2-.3.4.4-.1-.1.1h.5c-1.6.8-3.2 1.3-4.9 1.5 3 .3 5.5-1.3 8.2-2.1-.3.6-.9 1-1.8 1.1 1.2-.1 1.6-.1 2.5-.5.1 1.8 4.7 3.3 2.5 5.8.3.4.3.8 0 1.2l.4.4c-.6.5-.6.9-.3 1.3-.2-.1-.4-.2-.6-.2-.5.4.3 1.2.6 1.4.1.5.6.8 1.1.7 0-.5-.1-.9-.3-1.2.7.6 1.4 1.2.4 2.3.2-.6-.1-1-.7-1.2-1.8 5.9-2.4 7.4-.2 12.4 1 2.1 2.2 4.3 1.5 5.7.3.4.6.8 1 1.1l.1-.1c.8.4 1.1 1.1.8 1.9.3 1.2.9 1.8 1.8 1.9.5-.3-3.2-7.2-2.1-5.3-.2-1.1-.4-2.1-.8-3.1 2 1 1.5 4.2 3.7 5.2l-.2.6c1.7 1.2 2.7 3.1 3.1 5l-.3.1c3.3 4.2 11.4 6.7 16.4 6.6.3 0 .4.1.5.4l-.1.1-.2-.1.1.2c.6.5 1.3 1 1.9 1.6l-.2.2.3.1c-.2.5 0 .9.6 1.1.2-.1.2-.3.1-.5.2.1.3.2.3.4.5.6 1.1 1 1.7 1.3v-.2c1.1 0 1 .4 1.7.3l.2.5c.3 0 .6-.1.8-.4-.5-1.2.3-1.3 1.6-.8l-.2.3c.5.6 1.5 2.5 1 3.5l.3.2c-.2.2-1.5 1.5-1.3 2l-.3.1.1.3c-.9.7-1.6 1.3-1.9 2.3.2.4.2.7 0 1l.6.3.4-.4c-.6.9-1.2 2.3-1.2 3.4.2.2.5.4.7.6 6.9-3.4 12.8-9 16.7-15.9zM55.5 15.7h.5c-.1 0-.2.1-.2.1-.2 0-.2-.1-.3-.1zm-3.6 2.4s0-.1 0 0c0-.1 0 0 0 0zm3.1-.8c-.1.1-.2.2-.2.3-.2-.1-.2-.2-.3-.3h.5zm-1.3-1.6l-.1-.1c.1 0 .1.1.2.1v.2c-.2 0-.3.1-.4.3.3 0 .5.1.7.3-.2-.2-.5-.2-.7-.1l.1.3c-.2 0-.4-.1-.6-.1v-.2c-.1-.1-.2-.2-.3-.2.4-.1.7-.3 1.1-.5zm-1.7 0s.1 0 0 0c.1 0 0 0 0 0zm.2.2h.1v-.1c-.1-.1-.2-.1-.2-.1h.3c0 .1.1.2.1.3-.1 0-.2-.1-.3-.1zm-.1 2.1s.1 0 .1-.1h.1l.7-.7c.3.1.5.1.8.1h.2c-.8.8-.8 1.1 0 1l-.3.3c.6.4 1 .6 1.5.8.1.4 0 .9-.4 1.2-.3-.5-.5-.7-.9-1.2l-.4.5-.1-.6-.4-.1c.6-.5.3-.9-.9-1.2zM47 20.3l-.2-.3c.2.1.3.1.5.1l-.3.2z" style="fill:rgb(245, 230, 200);animation-play-state:paused" ></path>
<path fill="#f5e6c8" d="M21.9 23.2z" style="fill:rgb(245, 230, 200);animation-play-state:paused" ></path>
<metadata xmlns:d="https://loading.io/stock/" style="animation-play-state:paused" ><d:name style="animation-play-state:paused" >earth</d:name>


<d:tags style="animation-play-state:paused" >globe,map,world,america,planet,pacific ocean,earth,web application</d:tags>


<d:license style="animation-play-state:paused" >by</d:license>


<d:slug style="animation-play-state:paused" >qvz8de</d:slug></metadata></g><!-- generated by https://loading.io/ --></svg>